<svg version="1.1" class="ion" id="Layer_2" xmlns="http://www.w3.org/2000/svg" xmlns:xlink="http://www.w3.org/1999/xlink" x="0px" y="0px"
     viewBox="0 0 300 300" fill="#488aff" style="enable-background:new 0 0 300 300;" xml:space="preserve">
<g>
    <circle class="st0 c1" cx="150" cy="150" r="56.8"/>
    <g>
        <g>
            <path class="st0" d="M264.8,100.5c-0.7-1.6-1.4-3.2-2.2-4.7c-8.6-5.8-13.2-2.9-14.8,6.7c0.6,1.2,1.2,2.5,1.8,3.8
                c5.9,13.4,9.2,28.2,9.2,43.8c0,60-48.8,108.8-108.8,108.8C90,258.8,41.2,210,41.2,150C41.2,90,90,41.2,150,41.2
                c16.2,0,31.6,3.6,45.5,10c0.7,0.3,1.5,0.7,2.2,1.1c9,5.2,18.6-7,10.6-12.8c-1.7-0.9-3.4-1.8-5.1-2.6C187,29.3,169,25,150,25
                C81.1,25,25,81.1,25,150s56.1,125,125,125s125-56.1,125-125C275,132.4,271.3,115.7,264.8,100.5z"/>
        </g>
        <circle class="st0" cx="231.2" cy="70.5" r="17.9"/>
    </g>
</g>
</svg>